#!OML:ASF E:\Steps\Project 1\Capture day 1\Session 2\Subject.ASF
:FULLY-SPECIFIED
:DEGREES
880
root 25.4449 16.091 -10.7711 -319.981 85.0089 20.9228
lowerback -30.3933 -0.889757 -5.58377
upperback -1.11818 1.25345 -1.3561
thorax 14.6526 0.340273 2.08891
lowerneck 4.12264 -0.566473 -4.36514
upperneck 0.317198 -0.855097 6.98363
head -0.566204 -0.480703 3.01275
rclavicle -3.00662e-015 3.57812e-015
rhumerus -31.0512 -14.047 -83.531
rradius 37.5543
rwrist -5.08355
rhand -8.01078 -51.5472
rfingers 7.12502
rthumb 17.8985 -80.7436
lclavicle -3.00662e-015 3.57812e-015
lhumerus -34.0367 18.8346 72.4582
lradius 6.37431
lwrist -18.968
lhand -21.0517 -8.72333
lfingers 7.12502
lthumb 5.32439 21.1898
rfemur -14.9601 3.93322 19.5992
rtibia 26.2275
rfoot -21.0328 -1.10928
rtoes -32.7061
lfemur -32.8372 -8.86669 -18.8536
ltibia 13.9891
lfoot 0.77385 1.35062
ltoes -27.2435
881
root 25.5372 16.1049 -10.7811 -323.167 84.9596 17.7194
lowerback -30.491 -0.87911 -5.54143
upperback -1.14527 1.23922 -1.2326
thorax 14.6644 0.332822 2.19505
lowerneck 4.00292 -0.589315 -4.37115
upperneck 0.307409 -0.883266 6.96389
head -0.546586 -0.493037 3.00656
rclavicle -9.06955e-015 2.0276e-014
rhumerus -31.2971 -14.5119 -83.2526
rradius 36.7788
rwrist -4.83478
rhand -9.10339 -52.0621
rfingers 7.12502
rthumb 16.8469 -81.3513
lclavicle -9.06955e-015 2.0276e-014
lhumerus -33.9487 18.8664 72.5186
lradius 7.2007
lwrist -19.3182
lhand -21.2716 -8.44122
lfingers 7.12502
lthumb 5.11208 21.4771
rfemur -15.1484 3.59815 19.7616
rtibia 27.0943
rfoot -20.4686 -0.689257
rtoes -32.5557
lfemur -32.2585 -8.44997 -18.8443
ltibia 13.6633
lfoot 0.696917 1.0992
ltoes -27.9697
882
root 25.6273 16.114 -10.8001 -323.823 85.0239 17.0379
lowerback -30.5701 -0.906766 -5.46098
upperback -1.16 1.18256 -1.23561
thorax 14.689 0.313377 2.12605
lowerneck 3.81196 -0.593909 -4.30207
upperneck 0.275054 -0.882044 6.87121
head -0.523683 -0.489333 2.96037
rclavicle 1.59028e-014 -1.15295e-014
rhumerus -31.5045 -15.7209 -82.8197
rradius 35.8315
rwrist -3.5106
rhand -5.12471 -52.0076
rfingers 7.12502
rthumb 20.6736 -80.9266
lclavicle 1.59028e-014 -1.15295e-014
lhumerus -33.7191 18.8683 72.5524
lradius 7.89558
lwrist -19.8541
lhand -21.6037 -8.1372
lfingers 7.12502
lthumb 4.79145 21.7886
rfemur -15.3557 3.57284 19.7684
rtibia 28.036
rfoot -20.0455 -0.549353
rtoes -32.4558
lfemur -31.7595 -8.1385 -19.0667
ltibia 13.3583
lfoot 0.671228 0.642006
ltoes -28.4038
883
root 25.7188 16.1191 -10.8112 -323.655 85.0271 17.2649
lowerback -30.5747 -0.951543 -5.5676
upperback -1.17098 1.16481 -1.24783
thorax 14.6767 0.300119 2.16313
lowerneck 3.72722 -0.605376 -4.30591
upperneck 0.11303 -0.890687 6.80758
head -0.559824 -0.493927 2.94004
rclavicle 2.65626e-014 -3.97569e-015
rhumerus -31.849 -16.8262 -82.4248
rradius 34.9656
rwrist -2.26772
rhand -7.12645 -51.2712
rfingers 7.12502
rthumb 18.7492 -80.3877
lclavicle 2.65626e-014 -3.97569e-015
lhumerus -33.2828 18.8614 72.7139
lradius 8.31474
lwrist -20.2627
lhand -21.2912 -8.5226
lfingers 7.12502
lthumb 5.09319 21.3962
rfemur -15.611 3.07912 19.6158
rtibia 29.2181
rfoot -19.5887 0.121635
rtoes -31.9424
lfemur -31.0868 -8.23433 -19.2363
ltibia 12.891
lfoot 0.584633 0.601657
ltoes -28.981
884
root 25.8061 16.1217 -10.825 -323.313 85.0341 17.5712
lowerback -30.6129 -1.02846 -5.60292
upperback -1.22566 1.08072 -1.2432
thorax 14.6347 0.264357 2.15339
lowerneck 3.8392 -0.714813 -4.3609
upperneck -0.127402 -1.03034 6.94142
head -0.647078 -0.568833 3.00118
rclavicle 9.86469e-015 -1.03368e-014
rhumerus -32.2036 -17.1414 -82.2675
rradius 34.247
rwrist -1.36207
rhand -6.42989 -52.124
rfingers 7.12502
rthumb 19.4191 -81.1744
lclavicle 9.86469e-015 -1.03368e-014
lhumerus -33.0127 18.9348 72.7625
lradius 8.91231
lwrist -20.6389
lhand -20.6337 -9.22001
lfingers 7.12502
lthumb 5.72799 20.6826
rfemur -15.9923 2.60915 19.5002
rtibia 30.3284
rfoot -18.9199 0.374675
rtoes -31.885
lfemur -30.6184 -8.37477 -19.3868
ltibia 12.581
lfoot 0.412076 0.696763
ltoes -29.2107
885
root 25.8833 16.1246 -10.8542 -321.903 85.0907 18.8142
lowerback -30.6775 -1.07831 -5.55738
upperback -1.30605 1.00842 -1.25083
thorax 14.5761 0.241245 2.09146
lowerneck 3.82962 -0.769218 -4.38669
upperneck -0.353146 -1.0956 6.92752
head -0.713172 -0.603646 3.0043
rclavicle -2.16178e-014 8.74653e-015
rhumerus -32.4987 -17.4557 -82.0305
rradius 33.5457
rwrist -0.0560892
rhand -6.05056 -53.1097
rfingers 7.12502
rthumb 19.7838 -82.1228
lclavicle -2.16178e-014 8.74653e-015
lhumerus -32.6925 18.9563 72.9111
lradius 9.59636
lwrist -20.9707
lhand -20.0647 -9.74795
lfingers 7.12502
lthumb 6.27732 20.139
rfemur -16.6547 1.2289 19.1808
rtibia 31.546
rfoot -18.0506 1.29326
rtoes -32.0037
lfemur -30.5163 -8.07823 -19.7883
ltibia 12.5869
lfoot 0.246349 0.222931
ltoes -28.3442
886
root 25.9595 16.1284 -10.8795 -320.685 85.0817 19.9831
lowerback -30.6398 -1.10256 -5.66436
upperback -1.34837 1.00295 -1.19742
thorax 14.5065 0.23383 2.20472
lowerneck 3.70743 -0.763619 -4.45339
upperneck -0.512472 -1.08488 6.81573
head -0.743092 -0.597261 2.97887
rclavicle 9.79014e-015 -3.1408e-014
rhumerus -32.8205 -17.9003 -81.6002
rradius 32.8976
rwrist 0.965755
rhand -5.60947 -53.556
rfingers 7.12502
rthumb 20.2077 -82.5249
lclavicle 9.79014e-015 -3.1408e-014
lhumerus -32.2656 18.949 73.2729
lradius 10.1945
lwrist -21.4149
lhand -20.1051 -9.9243
lfingers 7.12502
lthumb 6.23833 19.9638
rfemur -17.219 0.826676 19.084
rtibia 32.9164
rfoot -17.6014 0.548848
rtoes -37.9001
lfemur -30.1736 -7.82553 -20.1792
ltibia 12.416
lfoot 0.132871 -0.210868
ltoes -27.217
